<svg xmlns="http://www.w3.org/2000/svg" fill="none" viewBox="0 0 24 24" id="C-Sharp--Streamline-Svg-Logos" height="24" width="24">
  <desc>
    C Sharp Streamline Icon: https://streamlinehq.com
  </desc>
  <path fill="#05930c" d="M12 23.75c6.48935 0 11.75 -5.26065 11.75 -11.75S18.48935 0.25 12 0.25 0.25 5.51065 0.25 12s5.26065 11.75 11.75 11.75Z" stroke-width="0.25"></path>
  <path fill="#ffffff" fill-opacity=".1" d="M3.821125 3.563725 20.4211 20.19425C18.286475 22.38755 15.302325 23.749875 12 23.749875c-6.48935 0 -11.75 -5.26065 -11.75 -11.75 0 -3.3101 1.3687475 -6.300525 3.571125 -8.43615Z" stroke-width="0.25"></path>
  <path fill="#ffffff" d="M11.423675 16.24095c-0.79935 0.3889 -1.681975 0.575525 -2.570325 0.543425 -1.1877 0.05205 -2.340075 -0.411025 -3.161475 -1.270475 -0.8162 -0.9149 -1.2419 -2.112925 -1.186025 -3.337725 -0.05745 -1.327275 0.424675 -2.6213 1.336575 -3.587425 0.8914 -0.911975 2.125625 -1.406475 3.40015 -1.362275 0.744525 -0.0284 1.486925 0.096575 2.1811 0.3672v1.15665c-0.6733 -0.374225 -1.432925 -0.5654 -2.203125 -0.554475 -0.970225 -0.03215 -1.9071 0.356 -2.570325 1.06485 -0.68755 0.783775 -1.043125 1.804375 -0.9914 2.8457 -0.05085 0.984125 0.280675 1.949825 0.925325 2.695175 0.625425 0.67245 1.513125 1.038525 2.430775 1.002425 0.84615 0.021025 1.68145 -0.19385 2.412425 -0.62055l-0.003675 1.0575Zm8.1993 -6.27525 -0.146875 0.682975h-1.689075l-0.4039 1.93875h1.8139l-0.172575 0.682975h-1.777175l-0.56915 2.5703h-0.8115l0.554475 -2.5703h-1.615625l-0.54345 2.5703h-0.793125l0.54345 -2.5703h-1.70375l0.1285 -0.682975h1.7111l0.3929 -1.935075h-1.7882l0.13585 -0.682975h1.7882l0.54345 -2.596025h0.818825l-0.54345 2.596025h1.62665l0.55445 -2.596025H18.47l-0.54345 2.596025 1.696425 -0.003675Zm-2.63275 0.682975h-1.6303l-0.422275 1.93875h1.63765l0.414925 -1.93875Z" stroke-width="0.25"></path>
</svg>