<svg xmlns="http://www.w3.org/2000/svg" fill="none" viewBox="0 0 24 24" id="Dotnet--Streamline-Svg-Logos" height="24" width="24">
  <desc>
    Dotnet Streamline Icon: https://streamlinehq.com
  </desc>
  <path fill="#512bd4" d="M23.75 0.25H0.25v23.5h23.5V0.25Z" stroke-width="0.25"></path>
  <path fill="#ffffff" d="M4.438525 15.263875c-0.166175 0 -0.3074 -0.05535 -0.423725 -0.1661 -0.1163 -0.113575 -0.174475 -0.24845 -0.174475 -0.4046 0 -0.15905 0.058175 -0.2953 0.174475 -0.408875 0.116325 -0.1136 0.25755 -0.170375 0.423725 -0.170375 0.168925 0 0.31155 0.056775 0.42785 0.170375 0.1191 0.113575 0.178625 0.249825 0.178625 0.408875 0 0.15615 -0.059525 0.291025 -0.178625 0.4046 -0.1163 0.11075 -0.258925 0.1661 -0.42785 0.1661Zm6.6425 -0.0937h-1.08005L7.15545 10.681c-0.072 -0.113575 -0.131575 -0.231425 -0.178625 -0.353525h-0.024925l0.004275 0.028125 0.004 0.032075 0.003675 0.036075 0.0034 0.04005 0.00455 0.0675 0.003875 0.07645 0.003225 0.0854 0.00255 0.094325 0.001875 0.103275 0.000875 0.073825 0.000925 0.20195v4.00365h-0.95545V9.0625h1.150675l2.75 4.3827 0.06795 0.10725 0.0437 0.0705 0.0375 0.062025 0.031275 0.0535 0.0174 0.03095 0.01465 0.027175 0.011875 0.023425h0.0166l-0.00315 -0.019175 -0.0059 -0.041325 -0.0054 -0.045325 -0.0049 -0.049275c-0.0008 -0.00855 -0.00155 -0.017275 -0.002275 -0.02615l-0.004175 -0.055275 -0.0037 -0.05925 -0.0032 -0.063225 -0.003875 -0.102325 -0.00275 -0.111275 -0.001675 -0.12025 -0.00055 -0.1292V9.0625h0.951275v6.107675Zm4.6527 0h-3.344V9.0625h3.2111v0.860375h-2.2224v1.7292h2.04795v0.8561h-2.04795v1.8059h2.3553v0.8561Zm4.752475 -5.2473h-1.7115v5.2473H17.786V9.922875h-1.7073V9.0625h4.4075v0.860375Z" stroke-width="0.25"></path>
</svg>