<svg xmlns="http://www.w3.org/2000/svg" fill="none" viewBox="0 0 24 24" id="Redis--Streamline-Svg-Logos" height="24" width="24">
  <desc>
    Redis Streamline Icon: https://streamlinehq.com
  </desc>
  <path fill="#912626" d="M22.82925 17.422075c-1.254075 0.6537 -7.75075 3.3249 -9.1339 4.0459 -1.38305 0.721175 -2.1514 0.7142 -3.244 0.19185C9.35875 21.1375 2.445115 18.34485 1.19976 17.749625 0.577265 17.4521 0.25 17.201025 0.25 16.963825V14.5885s9.0006 -1.959475 10.4537 -2.4807c1.453 -0.52135 1.957175 -0.54015 3.1937 -0.087225C15.13405 12.473625 22.527875 13.80765 23.75 14.255275c0 0 -0.00055 2.121475 -0.00055 2.3417 0.000175 0.234825 -0.281825 0.492425 -0.9202 0.8251Z" stroke-width="0.25"></path>
  <path fill="#c6302b" d="M22.8288 15.06085C21.574775 15.71425 15.078325 18.385525 13.695225 19.1065c-1.383025 0.72125 -2.15135 0.714175 -3.243925 0.19185 -1.09265 -0.52195 -8.005965 -3.31505 -9.25128 -3.909975 -1.245316 -0.5953 -1.271478 -1.005 -0.0481025 -1.484C2.3752025 13.4252 9.2506 10.72775 10.703825 10.20645c1.452975 -0.52115 1.957025 -0.54015 3.193525 -0.087025 1.2366 0.452925 7.694325 3.023325 8.916325 3.470825 1.222275 0.448075 1.269175 0.8169 0.015125 1.4706Z" stroke-width="0.25"></path>
  <path fill="#912626" d="M22.82925 13.578675c-1.254075 0.6537 -7.75075 3.324875 -9.1339 4.04615 -1.38305 0.7209 -2.1514 0.713925 -3.244 0.1916 -1.0927 -0.522075 -8.006235 -3.315 -9.25159 -3.910225C0.577265 13.608675 0.25 13.357875 0.25 13.120675v-2.3756s9.0006 -1.959375 10.4537 -2.4807c1.453 -0.521225 1.957175 -0.54015 3.1937 -0.0872 1.23665 0.453025 8.630475 1.786775 9.8526 2.2345 0 0 -0.00055 2.121475 -0.00055 2.341975 0.000175 0.23475 -0.281825 0.492325 -0.9202 0.825025Z" stroke-width="0.25"></path>
  <path fill="#c6302b" d="M22.8288 11.2174c-1.254025 0.6536 -7.750475 3.3247 -9.133575 4.04595 -1.383025 0.720975 -2.15135 0.7139 -3.243925 0.191575 -1.09265 -0.52195 -8.005965 -3.31495 -9.25128 -3.909975 -1.245316 -0.595125 -1.271478 -1.0049 -0.0481025 -1.484075C2.3752025 9.58195 9.2506 6.884325 10.703825 6.3631c1.452975 -0.521225 1.957025 -0.540125 3.193525 -0.0871 1.2366 0.452925 7.694325 3.023125 8.916325 3.470825 1.222275 0.447875 1.269175 0.817 0.015125 1.470575Z" stroke-width="0.25"></path>
  <path fill="#912626" d="M22.82925 9.592575c-1.254075 0.6537 -7.75075 3.325 -9.1339 4.046275 -1.38305 0.720975 -2.1514 0.713925 -3.244 0.191575 -1.0927 -0.522075 -8.006235 -3.315075 -9.25159 -3.910125C0.577265 9.6227 0.25 9.3718 0.25 9.134775v-2.375675s9.0006 -1.9593 10.4537 -2.480525c1.453 -0.521325 1.957175 -0.54015 3.1937 -0.087225 1.23665 0.45305 8.630475 1.7868 9.8526 2.2345 0 0 -0.00055 2.1215 -0.00055 2.3419 0.000175 0.23455 -0.281825 0.49215 -0.9202 0.824825Z" stroke-width="0.25"></path>
  <path fill="#c6302b" d="M22.8288 7.23135c-1.254025 0.653575 -7.750475 3.324875 -9.133575 4.045925 -1.383025 0.720975 -2.15135 0.7139 -3.243925 0.191775 -1.092575 -0.52215 -8.005965 -3.314975 -9.25128 -3.9101 -1.245316 -0.5951 -1.271478 -1.004975 -0.0481025 -1.484075C2.3752025 5.5959 9.2506 2.898525 10.703825 2.377125c1.452975 -0.5213125 1.957025 -0.54004 3.193525 -0.0870225C15.13395 2.743125 21.591675 5.31335 22.813675 5.761025c1.222275 0.4476 1.269175 0.816725 0.015125 1.470325Z" stroke-width="0.25"></path>
  <path fill="#ffffff" d="m14.8717 4.9205 -2.02035 0.209775 -0.45235 1.0883 -0.730575 -1.21445 -2.332975 -0.209675 1.740825 -0.627775 -0.522275 -0.963675 1.629775 0.637425 1.536525 -0.503075 -0.415275 0.996475 1.566675 0.586675Z" stroke-width="0.25"></path>
  <path fill="#ffffff" d="m12.278325 10.200525 -3.77075 -1.56395 5.40325 -0.829325 -1.6325 2.393275Z" stroke-width="0.25"></path>
  <path fill="#ffffff" d="M7.0508 5.525525c1.594975 0 2.88795 0.501225 2.88795 1.119425 0 0.6183 -1.292975 1.11945 -2.88795 1.11945 -1.5949 0 -2.88795 -0.50115 -2.88795 -1.11945 0 -0.6182 1.29305 -1.119425 2.88795 -1.119425Z" stroke-width="0.25"></path>
  <path fill="#621b1c" d="m17.259525 5.21815 3.197825 1.2637 -3.1951 1.26245 -0.002725 -2.52615Z" stroke-width="0.25"></path>
  <path fill="#9a2928" d="m13.721675 6.617575 3.53785 -1.399425 0.002725 2.52615 -0.34685 0.135725 -3.193725 -1.26245Z" stroke-width="0.25"></path>
</svg>