<svg xmlns="http://www.w3.org/2000/svg" fill="none" viewBox="0 0 96 96" id="Sqlite--Streamline-Svg-Logos" height="24" width="24">
  <desc>
    Sqlite Streamline Icon: https://streamlinehq.com
  </desc>
  <path fill="#003b57" d="M36.7274 47.7202c-1.2528 0-2.2714.3709-3.0524 1.1122-.781.742-1.1771 1.7146-1.1771 2.9063 0 .6176.0984 1.1807.2922 1.6967.1939.517.4956.996.9011 1.4288.4056.4332 1.2174 1.0216 2.4274 1.7697 1.4846.9064 2.4562 1.6419 2.9225 2.2163.4666.5738.6982 1.1752.6982 1.8022 0 .8395-.2764 1.5096-.8443 2.0133-.569.504-1.3298.755-2.2731.755-.995 0-1.8617-.3507-2.6059-1.0472-.7443-.6975-1.12-1.6201-1.1285-2.7764h-.4627v4.197h.4627c.1413-.3974.3368-.6007.5927-.6007.123 0 .4114.0849.8605.2435 1.0927.3888 1.9899.5764 2.6952.5764 1.2155 0 2.253-.4257 3.1174-1.2908.8631-.8647 1.2989-1.9077 1.2989-3.1254 0-.9443-.2877-1.7844-.8524-2.5167-.5647-.7331-1.6629-1.5859-3.3041-2.5653-1.4122-.8485-2.3289-1.5395-2.7521-2.0782-.4237-.538-.6413-1.133-.6413-1.786 0-.7063.2595-1.2736.7712-1.6967.5118-.4235 1.1824-.6332 2.0215-.6332.9443 0 1.7314.2802 2.3542.8442.6222.5651.982 1.348 1.0878 2.3543h.4628v-3.6369h-.4303c-.0526.1854-.1013.3039-.1461.3572-.0435.0529-.1273.0812-.2517.0812-.1497 0-.4166-.063-.7956-.1868-.8118-.2734-1.5603-.414-2.2487-.414Zm15.1241 0c-1.5265 0-2.9124.3598-4.1646 1.0797-1.2541.7186-2.2468 1.7165-2.9793 2.9875-.7323 1.2709-1.096 2.6206-1.096 4.0591 0 1.9325.6326 3.6541 1.9078 5.1631 1.2758 1.5081 2.8046 2.4478 4.5786 2.8089.4056.2113.9859.7569 1.7454 1.6399.856.9964 1.5801 1.7152 2.1757 2.1432.5949.4282 1.2372.742 1.9159.9498.6793.2069 1.4138.3085 2.2081.3085.9618 0 1.823-.1672 2.5816-.5115l-.1705-.4221c-.4403.1588-.9099.2354-1.4045.2354-.6712 0-1.3495-.2213-2.0295-.6657-.679-.4454-1.5282-1.2953-2.541-2.5491-.476-.6007-.8046-.9797-.9904-1.1284 1.9409-.379 3.5369-1.3197 4.7816-2.8251 1.2443-1.5048 1.8672-3.2222 1.8672-5.1469 0-2.2854-.8131-4.2061-2.4274-5.772-1.6155-1.5661-3.6021-2.3543-5.9587-2.3543Zm9.4414 0 .0244.4952c1.0164 0 1.5856.2994 1.7129.9011.0474.2153.0692.6129.0731 1.1853l-.0081 10.9514c-.0085.8179-.1251 1.3401-.3491 1.5668-.2244.225-.6037.3659-1.1528.4221l-.0243.4952h10.1314l.2598-2.4841h-.4628c-.1321.6767-.4351 1.1615-.9173 1.4369-.4835.2774-1.3385.414-2.5735.414h-.9579c-1.1112 0-1.7542-.4017-1.924-1.2096-.0351-.1598-.0471-.3312-.0487-.5196l.0406-11.0731c-.0003-.8166.1029-1.3639.3166-1.6318.2159-.2669.6053-.4163 1.169-.4546l-.0243-.4952h-5.285Zm-9.279.6008c1.7217 0 3.1274.6781 4.2133 2.0457 1.0856 1.3682 1.6236 3.2434 1.6236 5.6178 0 2.25-.5458 4.0516-1.6398 5.4067-1.094 1.3547-2.5501 2.0295-4.3595 2.0295-1.7382 0-3.1479-.6959-4.2295-2.0945-1.0807-1.3986-1.6155-3.2144-1.6155-5.4472 0-2.2946.5413-4.1313 1.6317-5.5042 1.0898-1.3713 2.5491-2.0538 4.3757-2.0538Zm23.2991 2.3542c-.2472 0-.4355.0835-.5764.2517-.1442.1675-.1884.3705-.138.617.0487.2391.1834.4486.3978.6251.213.1763.4429.2679.69.2679.239 0 .4212-.0916.552-.2679.1309-.1765.1708-.386.1218-.6251-.0503-.2465-.1805-.4495-.3815-.617-.2033-.1682-.4267-.2517-.6657-.2517Zm6.6812 1.6805c-.4199 1.6152-1.3301 2.4893-2.7277 2.6303l.0162.4627h1.6318l-.0325 5.4716c.0026.9355.0312 1.5583.0974 1.8753.1608.7589.6563 1.1447 1.4857 1.1447 1.1998 0 2.4585-.7309 3.7749-2.1919l-.3978-.341c-.9505.9621-1.7909 1.445-2.5247 1.445-.4511 0-.7307-.2594-.8362-.7712-.0289-.1243-.0406-.2695-.0406-.4384l.0162-6.1941h2.4923l-.0243-.7388h-2.4598v-2.3542h-.4709Zm9.6362 2.062c-1.394 0-2.528.6767-3.4096 2.0214-.8771 1.347-1.1485 2.8393-.8037 4.4812.203.9618.6073 1.7071 1.2259 2.2325.6176.5252 1.4012.7875 2.338.7875.8722 0 2.0867-.2209 2.5978-.6657.5124-.4446.9846-1.1648 1.4207-2.1513l-.3491-.3653c-.6956 1.2797-2.0994 1.924-3.158 1.924-1.4554 0-2.3468-.7985-2.679-2.3868-.0431-.2027-.0753-.4205-.0974-.6494 1.7315-.2742 3.0437-.7596 3.9292-1.4613.8849-.7021 1.7733-1.4463 1.6074-2.2325-.0987-.4672-.3413-.8345-.7144-1.1122-.378-.2775-1.3593-.4221-1.9078-.4221Zm-15.2377.0568-3.0037.6901v.5358l1.0391-.1299c.5033 0 .7995.2279.893.6819.0315.1519.0513.3653.0568.6332l-.0325 4.9115c-.0084.6796-.0837 1.0747-.2354 1.1933-.1529.1189-.5562.1786-1.2096.1786l-.0162.4628h4.7653l-.0081-.4628c-.6621 0-1.0914-.0522-1.2827-.1542-.188-.1013-.3175-.2858-.3734-.5683-.0432-.2035-.062-.5543-.0649-1.0391l.0162-6.9329h-.5439Zm14.4746.9092c.29 0 .5702.112.8524.3329.2783.2201.4478.4648.5034.7306.2718 1.3058-.8859 2.2085-3.4908 2.7115-.0744-.9521.0906-1.8165.5114-2.5978.4176-.7806.9615-1.1772 1.6236-1.1772Z"></path>
  <path fill="#0f80cc" d="M29.9997 28.9678H4.14997C2.41749 28.9678 1 30.3855 1 32.1179v28.5075c0 1.7323 1.41749 3.1498 3.14997 3.1498H21.1753c-.1933-8.4712 2.6996-24.9113 8.8244-34.8074Z"></path>
  <path fill="url(#a)" d="M29.0608 29.8867H4.15017c-1.23016 0-2.23122 1.0008-2.23122 2.2312v26.4275c5.64172-2.1652 14.10925-4.0336 19.96405-3.9487 1.1765-6.1518 4.6343-18.2081 7.1778-24.71Z"></path>
  <path fill="#003b57" d="M36.0292 28.0351c-1.7704-1.5788-3.914-.9447-6.0295.9329-.3141.279-.6274.5884-.9392.919-3.619 3.8392-6.9783 10.9507-8.022 16.3818.4066.8244.7242 1.8765.9333 2.6802.0536.2062.1019.3998.1406.5644.0919.3897.1412.6423.1412.6423s-.0324-.1228-.1656-.5088c-.0253-.0741-.0535-.1549-.087-.2501-.0143-.0393-.0341-.087-.0558-.138-.2361-.5488-.8891-1.7071-1.1765-2.2114-.2458.7252-.4631 1.4035-.6449 2.0172.8296 1.5181 1.3352 4.1196 1.3352 4.1196s-.0438-.1686-.2523-.7571c-.1851-.5204-1.107-2.1356-1.3253-2.5133-.3736 1.3791-.522 2.3101-.3882 2.5368.2599.4393.5074 1.1972.7247 2.0354.491 1.8882.8323 4.1869.8323 4.1869s.0111.1523.0296.3868c-.0682 1.5857-.0273 3.2297.0954 4.7157.1627 1.9672.4689 3.657.8593 4.5614l.2649-.1445c-.5731-1.7818-.8059-4.1169-.704-6.8098.1543-4.1163 1.1015-9.0803 2.8518-14.2542 2.9569-7.8103 7.0595-14.0769 10.8143-17.0695-3.4223 3.0907-8.0542 13.0952-9.4407 16.8-1.5526 4.1487-2.6527 8.0418-3.3158 11.7719 1.144-3.4969 4.8429-5 4.8429-5s1.8143-2.2375 3.9344-5.434c-1.27.2896-3.3554.7855-4.0539 1.079-1.0303.4322-1.3079.5796-1.3079.5796s3.3375-2.0324 6.2009-2.9527c3.938-6.2022 8.2282-15.0134 3.9078-18.8675Z"></path>
  <defs>
    <linearGradient id="a" x1="1566.96" x2="1566.96" y1="88.535" y2="2736.38" gradientUnits="userSpaceOnUse">
      <stop stop-color="#97d9f6"></stop>
      <stop offset=".92" stop-color="#0f80cc"></stop>
      <stop offset="1" stop-color="#0f80cc"></stop>
    </linearGradient>
  </defs>
</svg>